<svg xmlns="http://www.w3.org/2000/svg" viewBox="0 0 138.39 261.13"><defs><style>.cls-1{fill:#231f20;}</style></defs><title>Asset 10</title><g id="Layer_2" data-name="Layer 2"><g id="Layer_1-2" data-name="Layer 1"><path d="M114.73,76.24,23.85,82.5l-2.26,6.11.53.27c6.31,5,14.63,4.33,19.25-2.25l9.47-13.48A2,2,0,0,1,54.6,74a153.09,153.09,0,0,1-.53,23.78c-.53,4.07-.62,8.31-1.76,12.21a75.09,75.09,0,0,0-2.79,18.54c-.21,5.74-.14,11.5,0,17.24.17,7.22.24,14.46.9,21.64.82,9,1,18-1.05,26.86-1,4.38-2.06,8.75-1.25,13.34,1.6,9.16-7.55,17.76-6,26.94.48,2.85.72,5.62-.62,8.41-1.81,3.76-3.11,8.13-4.82,11.94-1.35,3-1.23,4,1.91,5.16a28,28,0,0,0,7,1,4,4,0,0,0,4.45-3c.91-2.45,2.18-4.78,3-7.26a7,7,0,0,0-.19-3.32c-.39-2-1.64-4.55-1.48-6.53.59-7.4,1.43-14.8,2.46-22.16.79-5.67,13.35-10.67,12.1-16.47a35.7,35.7,0,0,1,1.43-19.92A20.32,20.32,0,0,0,68.86,175c-.32-6.82,1.37-13.22,3.25-19.63,1.19-4.06,2.27-8.16,3.52-12.64.51,3,.79,5.72,1.42,8.31,1.59,6.54,3.52,13,5,19.59,1.16,5.27,1.65,10.69,2.72,16a27.77,27.77,0,0,1,.05,11.73c-1.19,5.44-2.23,11-1,16.59.92,4.15,1.82,8.32,2.88,12.44,1.87,7.34,12.37,11.23,10.11,18.5a4.63,4.63,0,0,0,.66,3.13c.83,1.52,2.21,2.78,2.93,4.34,1.06,2.32,2.65,4.24,5.08,4.22a9.18,9.18,0,0,0,7.24-3.13c1.18-1.46.92-2.63-.47-3.48h0c-1.08-2.39-2.48-4.69-3.18-7.19-1-3.45-12.67-3.74-12.43-7.22.41-6.06,1.94-12,2.79-18.08.83-5.83,1.65-11.68,2-17.54.15-3-1.15-6.1-1.22-9.17-.2-7.67-.22-15.36,0-23,.27-10.39.8-20.76,1.24-31.14.12-2.92.54-5.85.43-8.76-.14-3.71-.72-7.4-1-11.11-.22-2.63-.19-5.31-2.53-7.2-.23-.19-.24-.7-.28-1.07-.49-4-1.93-7.87-.33-11.92A6.48,6.48,0,0,0,97.55,95c-.42-6.78-.49-13.55.93-20,.65-3.49,3.41-6.77,6.25.06,3.2,7.7,3.52,9.4,5.52,16.71,1.61,5.92,3.54,11.58,1.07,17.63l-1.59,3a9.53,9.53,0,0,0-1.41,2.14c-.95,3,.42,10.84-.4,13.86-.15.55,0,0,0,.8,3.66-.4,2.35-6.93,3.8-9.43a14.16,14.16,0,0,1-.93,4.06c-.39,1.06-.9,2.07-1.35,3.1l0,0-1.54,2.31.44.6c2.31-.63,5.1-.59,6.91-1.89,4.16-3,7.55-6.73,6.4-12.61a9.72,9.72,0,0,1-.14-3.27c.56-3.79.33-7.51.75-11.43a21.85,21.85,0,0,0-.37-6.65l-8.66-42.27c-1.49-4.8-3.83-8.63-8.36-11-2.19-1.15-4.59-1.89-6.75-3.1a115.29,115.29,0,0,1-11.28-6.86c-2.91-2.1-3.6-8-1.17-10.27,2.21-2.12-.76-1.32.45-3.68.2-.39,0,.52,0,0-.08-.76-.11.73,0,0,.8-5.27,2.45-8.14-2-11.63a4,4,0,0,1-.77-.91C81.92,1.83,79.58,1.34,77,1.62c-2,.21-4,.46-5.94.86-4,.8-9.25,5.74-8.7,10.72.31,2.87,1.3,2,1.53,4.88.16,1.89-1.19-1.17,0,0,1.61,1.57,1.82,3.3,2.25,5.14a9.83,9.83,0,0,1-5.8,11.24c-1.62.68-1.37,1.34-2.92,2.17A22.07,22.07,0,0,0,55,38.87,38.36,38.36,0,0,0,51.24,43C49,45.88,48,48.28,46.14,49.73c-2.72,2.08-4.54,7.81-7.53,16.46C36.32,72.78,33,77.3,31.7,80.47c-.07.18-.81,2.24-2.64,2.56a3.13,3.13,0,0,1-1.29,0ZM79,15.32c-.43-.08-.75,9-1.19,8.88a4.1,4.1,0,0,0,.29-.4,4.1,4.1,0,0,1-.29.4C78.27,24.31,78.59,15.24,79,15.32Zm-7.89,6.82h0Zm-17.28,16ZM52,186.57l-.06.08.06-.08c-.4,2.45-.89,4.88-1.17,7.33C51.13,191.45,51.62,189,52,186.57Z"/><path d="M34.09,119.32c3.37,0,6.73,0,10.1,0a3.87,3.87,0,0,0,1.38-.17c1.71-.91,3.52-.44,5.36-.15a18.47,18.47,0,0,0,2.68.3q24.77,0,49.51,0a16.91,16.91,0,0,0,2.68-.3c1.91-.32,3.77-.74,5.5.2a5.15,5.15,0,0,0,1.58.12c6.4,0,12.79,0,19.19,0,3.72,0,5.91,1.07,6.27,2.77.26,1.21-.58,2.3-1.71,3.38a1.44,1.44,0,0,0-.53,1.08c.48,4.89,1,9.77,1.52,14.66a53.36,53.36,0,0,1,.34,5.35,6.38,6.38,0,0,1-3.3,5.83.64.64,0,0,0-.26.65c.93,7.91,1.92,15.83,2.78,23.75a10.35,10.35,0,0,1-.52,4.1,4.22,4.22,0,0,1-1.81,2c-1.11.72-1,1.3-.36,2.08,1.92,2.18,2.94,4.44,1.8,6.8a1.31,1.31,0,0,1-.33.51c-1.54,1.21-1.3,2.53-1.33,3.85-.18,8.09-.46,16.17-.63,24.25a32.74,32.74,0,0,0,2.45,12.85,5.38,5.38,0,0,1-.73,5.81,3.24,3.24,0,0,1-2.21,1c-22.42,3.19-32.26,3.38-35.25,1.15a4.4,4.4,0,0,1-1.74-.49c-4-2.95-7.66-6-9.18-9.45a9.33,9.33,0,0,1,.21-7.6c1.73-4.16,1.25-8.33.85-12.51-.29-3-.24-6.07,3-8.87.25-.22.13-.55,0-.82-2.72-7.85-5.66-15.68-8.13-23.54a24.62,24.62,0,0,1-.83-11.91,3.24,3.24,0,0,0-.32-1.81c-.85-1.95-1.77-3.89-2.74-5.82-.11-.23-.72-.41-1.1-.6-.32.19-.83.37-.94.59-1,2.06-2,4.12-2.93,6.2a3.12,3.12,0,0,0-.1,1.74c.84,5.17-.18,10.3-1.86,15.4-2.19,6.62-4.77,13.21-7.15,19.82a.69.69,0,0,0,.13.81c3.08,2.71,3.1,5.63,3,8.58a80.08,80.08,0,0,0-.09,9.55c.16,2,1.16,4.09,1.6,6.14.73,3.44-1,6.69-4.4,9.75-1.52,1.39-3.18,2.75-4.93,4.08a5.27,5.27,0,0,1-2.26.78A114.06,114.06,0,0,1,23,240a3.69,3.69,0,0,1-1.83-.89,5,5,0,0,1-.91-5.72c2.38-5.74,2.67-11.53,2.41-17.36-.33-7.21-.36-14.43-.53-21.64a1.1,1.1,0,0,0-.26-.89c-2.47-2.21-2.22-4.49-.86-6.78.52-.88,1.85-1.74,1.79-2.6s-1.71-1.59-2.2-2.44a6.08,6.08,0,0,1-1.07-3.3c.37-5,.91-9.94,1.48-14.9.39-3.51.92-7,1.37-10.53a.58.58,0,0,0-.27-.58c-2.7-1.76-3.38-3.77-3.29-5.82.15-3.65.48-7.29.83-10.93.3-3.11.74-6.21,1-9.32,0-.33-.36-.68-.69-1-1.37-1.3-2.22-2.62-1.17-4s2.65-1.92,5.69-2c3.19,0,6.39,0,9.59,0Z"/><path d="M89.33,16.67c0,9.21-7.58,20-15.32,20s-12.72-10.75-12.72-20S67.56,0,75.31,0,89.33,7.46,89.33,16.67Z"/><path class="cls-1" d="M31,90.32l0,0M31,83.14c-.72-.16-1.42-.35-2.13-.53a12.81,12.81,0,0,1-1.61-.45c-.79-.27-2.35-.86-3.13-1.17-1.58-.62-3.18-1.21-4.73-1.89a11.38,11.38,0,0,1-1.22-.57,25.35,25.35,0,0,0-2.59-1.21,6.75,6.75,0,0,1-1.23-.7A5.84,5.84,0,0,1,12.94,75a13.79,13.79,0,0,0-1-1.74,7.9,7.9,0,0,1-1.08-1.43c-.38-.67-.83-1.3-1.19-2a7.94,7.94,0,0,1-.41-1.12c-.09-.27-.24-.53-.3-.79a15.09,15.09,0,0,1-.41-1.46c-.07-.49-.36-1-.11-1.48a.52.52,0,0,0,0-.18,3.36,3.36,0,0,0,0-1.34c0-.09,0-.2-.18-.18A1.52,1.52,0,0,0,7,64a7.66,7.66,0,0,1-.46.7,2.64,2.64,0,0,0-.47,2,16.86,16.86,0,0,0,.61,2.69,4.54,4.54,0,0,1,.22,1.9c0,.11,0,.13-.16.14a6.74,6.74,0,0,1-1.49-.07.53.53,0,0,0-.12,0,10,10,0,0,0-2.38.19,1.85,1.85,0,0,0-.91.35A4.33,4.33,0,0,0,.62,73a1.1,1.1,0,0,0-.21.65.94.94,0,0,0,.33.65c.06.06.19.12.06.23a4,4,0,0,0-.49.6,1.35,1.35,0,0,0-.26.47,1.2,1.2,0,0,0,.57,1.35c.1.08.13.09,0,.2a1.55,1.55,0,0,0,0,2.24c.13.12.08.14,0,.2a.91.91,0,0,0-.51,1.24A1.86,1.86,0,0,0,1.1,82l.32.14a3.63,3.63,0,0,0,.94.48,2.38,2.38,0,0,1,.7.22,3.76,3.76,0,0,0,.82.27l2,.47a9.75,9.75,0,0,0,3.49.2,5,5,0,0,1,1,0A9.76,9.76,0,0,1,11.9,84a9.29,9.29,0,0,1,1.86.64c.66.31,1.3.66,1.94,1s1.31.72,2,1.07l1.86.93c.56.27,1.13.52,1.69.8.72.36,1.44.73,2.18,1.06.34.16.69.32,1,.5.79.43,1.61.8,2.41,1.19l1.13.55M5.51,78.32h0l0,.06a.06.06,0,0,0,0,0,.06.06,0,0,1,0,0Zm4.6-.53h0a0,0,0,0,0,0,0A0,0,0,0,1,10.11,77.79Zm-6,3.28a.23.23,0,0,0,.21-.19.56.56,0,0,0-.11-.45.56.56,0,0,1,.11.45A.23.23,0,0,1,4.09,81.07Zm0-.77.09.07Z"/></g></g></svg>