<svg xmlns="http://www.w3.org/2000/svg" viewBox="0 0 303.93 498.05"><defs><style>.cls-1{fill:#231f20;}</style></defs><title>Defecit</title><g id="Layer_2" data-name="Layer 2"><g id="Layer_1-2" data-name="Layer 1"><path class="cls-1" d="M303.93,270.33c-.14,2.68-1.68,4.12-2.76,5.74Q229.12,384.22,157,492.35c-.37.56-.74,1.11-1.12,1.66-3.66,5.36-4.26,5.4-7.85,0q-29.72-44.47-59.37-89-43-64.46-85.91-128.94C1.69,274.48.16,273,0,270.54c2.41-.57,4,1.09,5.77,2q45,25.05,89.9,50.19c6.56,3.67,7.36,3.21,7.36-4.6q0-51.74,0-103.47c0-8.1.43-8.54,8.42-8.54q40.74,0,81.48,0c7.38,0,7.95.62,7.95,8q0,51,0,102c0,1.16,0,2.33,0,3.49.14,6,1.12,6.57,6.44,3.6q44.52-24.84,89-49.68C298.64,272.31,300.71,270.49,303.93,270.33Z"/><path class="cls-1" d="M152,138q20.24,0,40.47,0c7.94,0,8.38.46,8.42,8.58,0,6.5-.1,13,0,19.49.07,4.19-1.71,6-6,6q-43-.1-85.94,0c-4.27,0-6-1.87-5.93-6.05.11-7,0-14,0-21,.06-6.15.86-7,6.94-7C124,137.91,138,138,152,138Z"/><path class="cls-1" d="M152.46,69c13.82,0,27.65,0,41.47,0,6.11,0,6.89.85,6.93,7,0,7.17,0,14.33,0,21.49,0,3.69-1.63,5.5-5.43,5.5q-43.47,0-86.93,0c-3.81,0-5.43-1.83-5.41-5.52,0-7.32.12-14.65-.07-22-.12-4.66,1.75-6.6,6.49-6.55C123.81,69.14,138.14,69,152.46,69Z"/><path class="cls-1" d="M152.1.05c14,0,28,0,42,0,5.87,0,6.68.83,6.76,6.65.09,7-.13,14,.06,21,.13,4.78-2,6.46-6.61,6.44q-42.48-.15-84.95,0c-4.42,0-6.41-1.73-6.32-6.22.14-7.16.17-14.33,0-21.49C102.89,1.67,105,0,109.62,0,123.78.15,137.94.06,152.1.05Z"/></g></g></svg>