<svg xmlns="http://www.w3.org/2000/svg" viewBox="0 0 226.81 571.2"><defs><style>.cls-1{fill:#fff;}</style></defs><title>ExtObese</title><g id="Layer_2" data-name="Layer 2"><g id="Layer_1-2" data-name="Layer 1"><path class="cls-1" d="M222.71,194.34c-4.11,10.28.66,20,2.6,30.37,2.15,11.53,1.74,23.89.36,35.64s-5.68,23.26-8,35c-2,10.18-3,20.58-4.62,30.85-2.16,13.24-5.78,25.49-16,35.58-12.31,12.11-19.32,27.53-22.09,44.75-1,6.07-2.46,12.06-3.4,18.14-.37,2.38-.53,5.14.32,7.29,5.36,13.67,5.55,27.77,3,41.84A172.37,172.37,0,0,1,157.53,524a14.26,14.26,0,0,1-1.65,2.48c-5,6.16-4.87,5.93,1,10.9a88.69,88.69,0,0,1,13,13c4.83,6.28,1.28,13.11-6.59,14.49-8.64,1.51-17.15,4.2-25.83,5A281.05,281.05,0,0,1,99.15,571c-8.34-.42-16.54-3.42-24.8-5.25-4-.89-8.07-1.63-12.06-2.66-6.92-1.77-8.78-7.08-4-12.73a113.27,113.27,0,0,1,13.2-12.8c5.66-4.82,4.83-4.11,1.42-10.65a258.35,258.35,0,0,1-15.77-35.94c-6.6-19.47-8.08-39.42-.94-59.31a6,6,0,0,0,.62-2.9c-2.25-12-4.14-24.19-7.14-36C48.31,387.14,45,382,42,377a69.19,69.19,0,0,0-9-12.28c-11.39-11.94-17.09-25.9-18.19-42.44C14.08,311.68,11,301.23,9,290.71,6.06,275.54,2.3,260.46.38,245.16c-1.37-10.92,1-21.87,5.87-32.06a11,11,0,0,0,1.08-6.63c-2.95-13.31-1-26.2,3-38.91,2.33-7.44,4.7-14.66,5.2-22.69.4-6.37,3.08-12.9,6-18.74A267.32,267.32,0,0,1,36.5,101c1.33-2,4.07-3.48,6.47-4.46,9.4-3.84,19-7.15,28.34-11.15a69.34,69.34,0,0,0,14.22-8.09c7-5.22,7.83-12.87,2.55-19.58-6.84-8.68-8.57-18-4.8-28.4.72-2,.56-4.27.77-6.42,1-10.11,6.09-17,15.91-20.26A47.46,47.46,0,0,1,121.57.4c12.29,1.62,21,10.7,21.66,23.05a15.23,15.23,0,0,0,.44,4c4,11.75,2.47,22.36-5.48,32.21-4,4.9-2.26,13.33,4,17.6a111.52,111.52,0,0,0,20.27,10.5c7.49,3.09,15.49,4.92,23,7.89,2.63,1,5.06,3.45,6.78,5.83,9.08,12.55,17.9,25.66,19.74,41.26,1.26,10.71,4.74,20.58,7.12,30.85C220.7,180.18,221.49,187,222.71,194.34Zm-101.38,357c.49-9.41.89-18.12,1.41-26.82.3-5,1-9.95,1.17-14.93a116.24,116.24,0,0,0-3.35-32.53c-4.39-17.57-.74-35.34,2.63-52.91,1.1-5.74,1.71-12,.51-17.64-2.36-11-6.15-21.7-9.38-32.51,0-.11-.5-.09-.16,0-2.4,8.38-4,17-7.36,24.88-3.79,8.92-4.18,17.51-2,26.73,3.75,16.13,6,32.45,3.33,49-.77,4.73-3.22,9.29-3.41,14-.42,10.11.1,20.27.3,30.4q.3,14.38.79,28.78a26.18,26.18,0,0,0,1,4.6ZM36.15,225.12l-.28-.09v32.73c1.32-4.77,3.34-8.55,3.18-12.24C38.75,238.69,37.18,231.91,36.15,225.12ZM192,227c-3.94,21.84-3.94,21.84,0,26.27Z"/><path class="cls-1" d="M192,227v26.27"/></g></g></svg>