<svg xmlns="http://www.w3.org/2000/svg" viewBox="0 0 175.75 276.61"><title>Gain</title><g id="Layer_2" data-name="Layer 2"><g id="Layer_1-2" data-name="Layer 1"><path d="M22.17,48.37c.68-.75,1.17-1.36,1.73-1.9a6.59,6.59,0,0,1,8-1.31A11.6,11.6,0,0,1,35,47.21a2.9,2.9,0,0,0,2.94.65A33.15,33.15,0,0,1,54.84,48,28.67,28.67,0,0,1,63,52.23a4.42,4.42,0,0,0,6.82-2c.12-.3.31-.68.21-.93-.75-2-.67-4.25-2.37-5.87a7,7,0,0,1-2.11-4.32c-.34-3-1.79-5.74-1.31-8.79.58-3.72.64-7.52,1.29-11.22.7-4,3.91-5.89,7.31-7,6.24-2,12.08-.67,17.31,3.17,1.76,1.29,2.33,3.32,2.51,5.43.07.79,0,1.58,0,2.38a11.79,11.79,0,0,0,.57,4.79c1,2.44.11,5.14-1.17,7.52a3.36,3.36,0,0,0-.63,1.37c-.15,2.8-.32,5.59-.44,8.38,0,.92.68,1.4,1.34,1.83a8.65,8.65,0,0,0,10.89-1.27c3.34-3.5,7.61-4.88,12.26-5.46A81.84,81.84,0,0,1,126.14,40a4.44,4.44,0,0,0,2.61-.77c4.73-3.15,7.88-3.06,12.4.37a6.21,6.21,0,0,0,3.44,1.32c.29-.33,0-.65,0-.93a14.93,14.93,0,0,1-.45-8.69,16,16,0,0,0-.35-8.77,31.22,31.22,0,0,0-4-9.63c-.52-.76-1-.93-1.82-.5a9.4,9.4,0,0,1-4.22.83,2.91,2.91,0,0,0-2.58,1.06,3.64,3.64,0,0,1-1.34,1,1.71,1.71,0,0,1-2.62-1.16,2.92,2.92,0,0,0-1.76-2.15c-.46-.24-.89-.51-1.33-.78-1.33-.83-1.55-1.5-.93-2.92a48,48,0,0,1,3.12-5.94,2.72,2.72,0,0,1,1.46-1.23,17,17,0,0,1,12.38.2c1.3.52,2.62,1,4,1.4a6.18,6.18,0,0,1,4.52,4.55C150,13,153.31,17.7,156.78,22.36A42.82,42.82,0,0,1,164.66,48a5.88,5.88,0,0,1-2.94,5.23,110.58,110.58,0,0,0-14.3,10.25c-3.55,3.07-7.55,5.47-12.36,6.15a12.51,12.51,0,0,1-5.8-.49c-1.12-.38-1.33-.09-1.36,1A26.6,26.6,0,0,1,125.13,82a6,6,0,0,1-1,1.67c-2.68,2.49-3.85,5.8-5.26,9a43.74,43.74,0,0,1-4.94,8.11,8.28,8.28,0,0,0-1.49,3.56c-.82,4.79-1.86,9.52-4.38,13.78a1.74,1.74,0,0,0,0,1.6c.92,2.54,1.8,5.1,2.62,7.68.58,1.82,2,3.21,3.07,4.81a33.72,33.72,0,0,1,2.82,4.82,15.19,15.19,0,0,0,2.63,3.43c6.59,7.91,12.13,16.42,15.34,26.3,1.61,5,1.95,10.08,2.36,15.26.33,4.18,1.15,8.62,4.75,11.75a27.35,27.35,0,0,1,8.51,14.47c2.19,8.68,4.49,17.33,6.19,26.12.44,2.29.91,4.57,1.25,6.88a19.47,19.47,0,0,0,2.48,6.79c3,5.28,6,10.52,9,15.82,1.69,3,4.19,5.49,5.88,8.51,1.48,2.63,1.12,3.34-1.91,3.41-3.21.06-6.43.18-9.63.51a6.82,6.82,0,0,1-2.5-.17,2.6,2.6,0,0,1-2.07-2c-1-3.32-3-6.07-5-8.86a16.67,16.67,0,0,1-2.23-4.49,55.38,55.38,0,0,1-2.79-11.8,19.17,19.17,0,0,0-3.78-9.37,6.14,6.14,0,0,1-.93-1.54c-1.82-5.56-5.59-9.86-9.11-14.33a1.7,1.7,0,0,0-1.2-.61,5.32,5.32,0,0,1-4.6-3.57c-2.32-5.83-4.31-11.73-4.46-18.1a1.94,1.94,0,0,0-.54-1.38c-3.38-3.55-6.9-7-10.3-10.48-1.38-1.42-3.58-2-5-3.46a84.65,84.65,0,0,0-11-9c-5-3.56-8.12-8.69-11.07-13.91-.79-1.4-1.61-2.79-2.54-4.16a34.1,34.1,0,0,1-.71,5.39,14.79,14.79,0,0,1-2.33,5.36,17.38,17.38,0,0,0-2.31,4.44c-3.11,8.11-7,15.86-10.8,23.66a7.93,7.93,0,0,0-.67,3.59c0,4.94,2.12,9.1,4.34,13.27A16.78,16.78,0,0,1,74,221.71a14.17,14.17,0,0,1-2.56,8.85,10.19,10.19,0,0,0-1.65,5.68c0,5.56-.32,11.13.12,16.65A47.48,47.48,0,0,0,73,267.61c1.44,3.43.59,5.91-2.33,7.52a6.27,6.27,0,0,1-2.85.6l-23.2.88a7.72,7.72,0,0,1-3-.43c-.87-.33-1-.89-.56-1.65a4.17,4.17,0,0,1,2-1.68c2.64-1.07,5.2-2.3,7.94-3.12,3.25-1,5.64-3.39,8.32-5.33a1.37,1.37,0,0,0,.41-.86c.17-2.46.37-4.91-.5-7.33-2.73-7.58-5.72-15.08-8-22.85A70.47,70.47,0,0,1,48.41,217a38.71,38.71,0,0,1,.8-9.6,3.7,3.7,0,0,0-.24-2.3,27,27,0,0,1-1.9-14,3.1,3.1,0,0,0-.59-2,41.57,41.57,0,0,1-5.16-13.81c-1.11-6.63-.15-13.08,1.58-19.49s4.42-12.17,7-18.12a92.72,92.72,0,0,1,5.64-11.87,30.48,30.48,0,0,1,4.29-5.68c1.88-1.92,2.4-4,1.14-6.43-1.9-3.63-2.34-7.53-2.57-11.49a4.39,4.39,0,0,0-1.13-2.6c-2.83-3.55-6.22-6.54-9.36-9.78A22.06,22.06,0,0,1,42,77.2c-.18-1.43-.67-1.37-1.77-1.06A26.17,26.17,0,0,1,24,76a32.57,32.57,0,0,1-12-7.81,7.54,7.54,0,0,0-3-2,9.56,9.56,0,0,1-2.88-1.7,10.24,10.24,0,0,0-3.79-2.26C.82,61.81.24,60.47.13,59-.6,48.52,1.58,39,8.86,31.09c2.87-3.13,4.41-7,6.05-10.8.1-.22.17-.44.26-.65,2.32-5.72,2.32-5.73,7.38-9.07a3.91,3.91,0,0,1,1.3-.48c2.46-.54,4.92-1.05,7.39-1.57l.4-.1a2.23,2.23,0,0,1,1.71.42c1.65.92,4.09.6,4.47,3.43.28,2.1,1.25,4.14.71,6.31a11.72,11.72,0,0,1-4.09,5.88c-1.08.95-2.1.61-2.58-.72-.19-.56-.64-.48-1-.58a23.41,23.41,0,0,1-3-.81,1.86,1.86,0,0,0-2.59.84,21.92,21.92,0,0,0-4,10.87,29.62,29.62,0,0,0,.32,5.26C21.81,42.24,22,45.17,22.17,48.37Z"/></g></g></svg>