<svg xmlns="http://www.w3.org/2000/svg" viewBox="0 0 139.39 262.13"><defs><style>.cls-1{fill:#231f20;stroke:#231f20;stroke-miterlimit:10;}</style></defs><title>Lose_2</title><g id="Layer_2" data-name="Layer 2"><g id="Layer_1-2" data-name="Layer 1"><path class="cls-1" d="M135.16,152.9a6.38,6.38,0,0,0,3.3-5.83,53.36,53.36,0,0,0-.34-5.35c-.49-4.89-1-9.77-1.52-14.66a1.44,1.44,0,0,1,.53-1.08c1.13-1.08,2-2.17,1.71-3.38-.36-1.7-2.55-2.74-6.27-2.77-3.44,0-6.88,0-10.32,0a10.85,10.85,0,0,0-.08-4,9.72,9.72,0,0,1-.14-3.27c.56-3.79.33-7.51.75-11.43a21.85,21.85,0,0,0-.37-6.65l-8.66-42.27c-1.49-4.8-3.83-8.63-8.36-11-2.19-1.15-4.59-1.89-6.75-3.1a115.29,115.29,0,0,1-11.28-6.86,5.58,5.58,0,0,1-1.53-1.76,23.21,23.21,0,0,0,4-12.35C89.83,8,83.55.5,75.81.5s-14,7.46-14,16.67a27.76,27.76,0,0,0,3.64,13.75,9.93,9.93,0,0,1-4.64,4c-1.62.68-1.37,1.34-2.92,2.17a22.07,22.07,0,0,0-2.42,2.24,38.36,38.36,0,0,0-3.71,4.09c-2.29,2.92-3.21,5.32-5.1,6.77C43.92,52.31,42.1,58,39.11,66.69,36.82,73.28,33.52,77.8,32.2,81a4.33,4.33,0,0,1-2,2.35l-.85-.21a12.81,12.81,0,0,1-1.61-.45c-.79-.27-2.35-.86-3.13-1.17-1.58-.62-3.18-1.21-4.73-1.89A11.38,11.38,0,0,1,18.68,79a25.35,25.35,0,0,0-2.59-1.21,6.75,6.75,0,0,1-1.23-.7,5.84,5.84,0,0,1-1.42-1.59,13.79,13.79,0,0,0-1-1.74,7.9,7.9,0,0,1-1.08-1.43c-.38-.67-.83-1.3-1.19-2a7.94,7.94,0,0,1-.41-1.12c-.09-.27-.24-.53-.3-.79A15.09,15.09,0,0,1,9,67c-.07-.49-.36-1-.11-1.48a.52.52,0,0,0,0-.18,3.36,3.36,0,0,0,0-1.34c0-.09,0-.2-.18-.18a1.52,1.52,0,0,0-1.22.63,7.66,7.66,0,0,1-.46.7,2.64,2.64,0,0,0-.47,2,16.61,16.61,0,0,0,.61,2.69,4.54,4.54,0,0,1,.22,1.9c0,.11,0,.13-.16.14a6.74,6.74,0,0,1-1.49-.07.53.53,0,0,0-.12,0A10,10,0,0,0,3.29,72a1.85,1.85,0,0,0-.91.35,4.33,4.33,0,0,0-1.26,1.11,1.1,1.1,0,0,0-.21.65.94.94,0,0,0,.33.65c.06.06.19.12.06.23a4,4,0,0,0-.49.6,1.35,1.35,0,0,0-.26.47,1.2,1.2,0,0,0,.57,1.35c.1.08.13.09,0,.2a1.55,1.55,0,0,0,0,2.24c.13.12.08.14,0,.2a.91.91,0,0,0-.51,1.24,1.86,1.86,0,0,0,1,1.19l.32.14a3.63,3.63,0,0,0,.94.48,2.38,2.38,0,0,1,.7.22,3.76,3.76,0,0,0,.82.27l2,.47a9.75,9.75,0,0,0,3.49.2,5,5,0,0,1,1,0,9.76,9.76,0,0,1,1.53.25,9.29,9.29,0,0,1,1.86.64c.66.31,1.3.66,1.94,1s1.31.72,2,1.07l1.86.93c.56.27,1.13.52,1.69.8l.38.18h0l.53.27c6.31,5,14.63,4.33,19.25-2.25l9.47-13.48a2,2,0,0,1,3.76.87,153.09,153.09,0,0,1-.53,23.78c-.53,4.07-.62,8.31-1.76,12.21a65.73,65.73,0,0,0-1.93,8.9c-1.65-.28-3.27-.57-4.81.24a3.87,3.87,0,0,1-1.38.17c-3.37,0-6.73,0-10.1,0h0c-3.2,0-6.4,0-9.59,0-3,0-4.73.64-5.69,2s-.2,2.75,1.17,4c.33.31.73.66.69,1-.3,3.11-.74,6.21-1,9.32-.35,3.64-.68,7.28-.83,10.93-.09,2,.59,4.06,3.29,5.82a.58.58,0,0,1,.27.58c-.45,3.51-1,7-1.37,10.53-.57,5-1.11,9.93-1.48,14.9a6.08,6.08,0,0,0,1.07,3.3c.49.85,2.13,1.62,2.2,2.44s-1.27,1.72-1.79,2.6c-1.36,2.29-1.61,4.57.86,6.78a1.1,1.1,0,0,1,.26.89c.17,7.21.2,14.43.53,21.64.26,5.83,0,11.62-2.41,17.36a5,5,0,0,0,.91,5.72,3.69,3.69,0,0,0,1.83.89,108.34,108.34,0,0,0,18.91,2,8.94,8.94,0,0,1-.38.92c-1.81,3.76-3.11,8.13-4.82,11.94-1.35,3-1.23,4,1.91,5.16a28,28,0,0,0,7,1,4,4,0,0,0,4.45-3c.91-2.45,2.18-4.78,3-7.26a7,7,0,0,0-.19-3.32c-.34-1.77-1.32-3.88-1.47-5.69,2.3-.14,4.61-.32,6.93-.58a5.27,5.27,0,0,0,2.26-.78c1.75-1.33,3.41-2.69,4.93-4.08,3.38-3.06,5.13-6.31,4.4-9.75-.44-2.05-1.44-4.09-1.6-6.14a80.08,80.08,0,0,1,.09-9.55c.12-2.74.11-5.46-2.38-8a3.72,3.72,0,0,0-.08-.57c-.12-.58-.21-1.15-.31-1.72,2.29-6.3,4.73-12.59,6.82-18.9,1.68-5.1,2.7-10.23,1.86-15.4a3.12,3.12,0,0,1,.1-1.74c.9-2.08,1.9-4.14,2.93-6.2.11-.22.62-.4.94-.59l.57.25c1.11,4.17,2.23,8.34,3.16,12.55l.06.31a26,26,0,0,0,1.2,7l.06.18c.43,2.83.83,5.67,1.4,8.47a27.77,27.77,0,0,1,.05,11.73c-1.19,5.44-2.23,11-1,16.59.91,4.12,1.81,8.26,2.85,12.35a8.4,8.4,0,0,0,.69,4c1.48,3.37,5,6.35,8.88,9.23a6.68,6.68,0,0,1,.57,5.34,4.63,4.63,0,0,0,.66,3.13c.83,1.52,2.21,2.78,2.93,4.34,1.06,2.32,2.65,4.24,5.08,4.22A9.18,9.18,0,0,0,113.2,255c1.18-1.46.92-2.63-.47-3.48h0c-1.08-2.39-2.48-4.69-3.18-7.19a2.29,2.29,0,0,0-.72-1.07A237.31,237.31,0,0,0,134,240.63a3.24,3.24,0,0,0,2.21-1,5.38,5.38,0,0,0,.73-5.81,32.74,32.74,0,0,1-2.45-12.85c.17-8.08.45-16.16.63-24.25,0-1.32-.21-2.64,1.33-3.85a1.31,1.31,0,0,0,.33-.51c1.14-2.36.12-4.62-1.8-6.8-.68-.78-.75-1.36.36-2.08a4.22,4.22,0,0,0,1.81-2,10.35,10.35,0,0,0,.52-4.1c-.86-7.92-1.85-15.84-2.78-23.75A.64.64,0,0,1,135.16,152.9ZM4.72,81.52a.32.32,0,0,0,.08-.14.41.41,0,0,0,0-.22.41.41,0,0,1,0,.22A.32.32,0,0,1,4.72,81.52ZM6,78.92a.06.06,0,0,1,0,0l0-.06,0,.06A.06.06,0,0,0,6,78.92Zm92,16.61c-.42-6.78-.49-13.55.93-20,.65-3.49,3.41-6.77,6.25.06,3.2,7.7,3.52,9.4,5.52,16.71,1.61,5.92,3.54,11.58,1.07,17.63l-1.59,3a9.53,9.53,0,0,0-1.41,2.14,14.33,14.33,0,0,0-.34,4.08c-.72.07-1.44.21-2.18.33a16.91,16.91,0,0,1-2.68.3h-2.19c-.05-.51-.11-1-.15-1.54-.22-2.63-.19-5.31-2.53-7.2-.23-.19-.24-.7-.28-1.07-.49-4-1.93-7.87-.33-11.92A6.48,6.48,0,0,0,98.05,95.53Z"/></g></g></svg>