<svg xmlns="http://www.w3.org/2000/svg" viewBox="0 0 86.13 268.96"><title>Lose</title><g id="Layer_2" data-name="Layer 2"><g id="Layer_1-2" data-name="Layer 1"><path d="M85.89,142.46A10.42,10.42,0,0,1,85.8,139c.63-4.59.16-9.09-.36-13.66-.68-5.93-.62-11.94-1.11-17.9-.28-3.46-.37-7.16-1.71-10.24-1.79-4.09-2.06-8.21-2.33-12.44-.07-1.09-.21-2.17-.33-3.25-.52-4.46-1.22-8.91-1.51-13.38-.18-2.77.4-5.58.4-8.37A12,12,0,0,0,72,48.45c-2.19-1.15-4.6-1.89-6.75-3.1A115.21,115.21,0,0,1,54,38.5c-2.91-2.1-3.61-8-1.18-10.28,2.22-2.12,2-4.95,3.21-7.3.2-.39-.09-1-.15-1.55a9.36,9.36,0,0,1-.21-2.28c.81-5.28-.07-10-4.53-13.45A2.36,2.36,0,0,1,50.46,3C49,.31,46.62-.21,43.91.07c-2,.21-4,.46-5.95.86-4,.8-9.24,5.74-8.7,10.72.32,2.87-.18,5.82,0,8.7.16,1.89.43,4.28,1.62,5.44,1.61,1.58,1.82,3.31,2.24,5.16,1.4,6.05,0,8.78-5.74,11.2-1.64.69-3.24,1.47-4.81,2.32A8.55,8.55,0,0,0,21,45.82l-7.29,2.86a10.26,10.26,0,0,0-5.83,5.37c-1.78,3.77-1.35,7.7-1.28,11.66A67.9,67.9,0,0,1,6.13,78c-1.57,9.53-3.65,19-5.4,28.47A37.86,37.86,0,0,0,0,114.33c.34,11.94.81,23.87,1.3,35.8a8.27,8.27,0,0,0,5.94,7.15c1.43.36,2.79,1,4.21,1.35.66.18,1.71.38,2,0a2.51,2.51,0,0,0,.14-2.07c-.34-1-.76-2.42-1.53-2.75-2.89-1.24-1.58-3.38-1.66-5.24.68,1.24,1,2.66,1.71,3.79.51.78,1.64,1.17,2.5,1.73.26-.9.95-1.92.72-2.67a161.37,161.37,0,0,0-5.18-15.57c-1.14-2.76-2.06-5.37-1.42-8.26.83-3.7,1.86-7.36,2.89-11,1.78-6.26,3.94-12.44,3.83-19.08A24.37,24.37,0,0,1,18.3,85.73c1.44,6.67,3.75,12.85,2.85,19.78-.52,4.08-.61,8.31-1.76,12.21a75.55,75.55,0,0,0-2.78,18.54c-.21,5.74-.15,11.5,0,17.24.17,7.22.25,14.46.9,21.64.83,9,1,18-1,26.86-1,4.39-2.06,8.76-1.26,13.34,1.61,9.16,3.12,18.34,4.68,27.51.48,2.85.72,5.62-.63,8.42-1.81,3.76-3.29,7.68-5,11.49-1.35,3-1.23,4,1.91,5.15a27.54,27.54,0,0,0,7,1A4,4,0,0,0,27.61,266c.91-2.46,2.18-4.79,3-7.27a7,7,0,0,0-.2-3.32c-.39-2-1.45-4.1-1.29-6.07q.9-11.12,2.46-22.17c.8-5.66,2.69-11.24,1.44-17a35.71,35.71,0,0,1,1.42-19.92A20.29,20.29,0,0,0,36,182.74c-.32-6.82,1.36-13.22,3.25-19.63,1.19-4.06,2.27-8.15,3.51-12.64.51,3,.79,5.72,1.42,8.31,1.6,6.55,3.53,13,5,19.59,1.16,5.28,1.65,10.7,2.72,16a27.77,27.77,0,0,1,0,11.73c-1.19,5.44-2.22,11-1,16.59.92,4.16,1.82,8.32,2.87,12.44A39.21,39.21,0,0,1,53.33,257a4.65,4.65,0,0,0,.66,3.12c.83,1.53,2.21,2.79,2.93,4.35,1.06,2.32,2.65,4.24,5.09,4.22a9.18,9.18,0,0,0,7.23-3.13c1.18-1.46.92-2.63-.46-3.48h0c-1.08-2.39-2.48-4.69-3.17-7.19-1-3.45-2.14-7.11-1.9-10.58.41-6.07,1.94-12.05,2.8-18.09.82-5.82,1.65-11.67,2-17.54.16-3-1.14-6.1-1.22-9.17-.19-7.67-.22-15.36,0-23,.26-10.39.79-20.76,1.23-31.14.12-2.92.54-5.85.43-8.76-.14-3.71-.72-7.4-1-11.11-.22-2.63-.19-5.31-2.52-7.2-.24-.19-.24-.7-.29-1.06-.48-4-1.93-7.88-.32-11.93a6.68,6.68,0,0,0-.1-2.54c-.41-6.78-.49-13.55.94-20,1.11,4.4,2.78,9,3.35,13.71.93,7.77,3.15,15.16,5.55,22.52,1.91,5.83,3.55,11.58,1.08,17.63l-1.59,3a9.31,9.31,0,0,0-1.41,2.14c-1,3-1.79,6-2.61,9a8.94,8.94,0,0,0,0,2c3.66-.39,4.58-3.27,6-5.78a14.15,14.15,0,0,1-.93,4.07c-.39,1-.9,2.06-1.35,3.09l0,0-1.54,2.3.62.56c2.27-.58,5-.57,6.73-1.85C83.67,152.12,87.08,148.37,85.89,142.46ZM46.11,23c-.44-.07-.88-.27-1.32-.38a4.1,4.1,0,0,0,.29-.4,4.1,4.1,0,0,1-.29.4C45.23,22.76,45.67,23,46.11,23Zm-8-2.44ZM20.93,45.89Zm-1.82,148.4-.06.07.06-.08c-.4,2.45-.9,4.88-1.18,7.33C18.21,199.16,18.71,196.73,19.11,194.29Z"/></g></g></svg>