<svg xmlns="http://www.w3.org/2000/svg" viewBox="0 0 728.63 578.75"><title>Maintane</title><g id="Layer_2" data-name="Layer 2"><g id="Layer_1-2" data-name="Layer 1"><path d="M330.31,98.45c-5.87-.52-11.18-.64-16.37-1.52a28.78,28.78,0,0,1-17.36-10.07c-2.06-2.46-4.19-3.19-7.25-3.18q-94,.1-188,0c-12,0-20.68-7.33-21.33-17.94-.7-11.53,7.92-20.52,20.08-20.66,12-.13,24,0,36,0q76.49,0,153,.05a9.4,9.4,0,0,0,7.79-3.2,33.39,33.39,0,0,1,28.25-11c3.75.28,5.31-.66,6.23-4.76A33.94,33.94,0,0,1,364.35,0c15.39.21,29,11.42,32.58,26.82.3,1.26.6,2.52.87,3.62,5.47.43,10.64.49,15.69,1.29A28.69,28.69,0,0,1,431.33,41.9c2.22,2.68,4.57,3.23,7.74,3.23q93.49-.09,187-.08c6.64,0,12.62,1.46,17.08,6.64,5.11,5.92,6.41,12.76,3.38,20-3.1,7.46-9.11,11.2-17,12-1.49.14-3,.06-4.5.06q-92.49,0-185-.07c-3.9,0-6.71.86-9.54,3.86a32,32,0,0,1-24.52,10.42c-2.48,0-5,0-8.25,0v6.54q0,218.72,0,437.42c0,9.3-1.9,17.86-8.11,25a33.52,33.52,0,0,1-37.21,9.75c-13.11-4.68-21.54-16.72-22-31.52-.08-2.33,0-4.67,0-7q0-216.7,0-433.43Z"/><path d="M268.06,307c-7.25,24.52-21.07,43.23-41.45,57.17-19.9,13.62-42.24,20.85-65.82,24.36-36.5,5.42-71.66.55-104.94-15.62-25.93-12.59-44.61-32.13-54.48-59.56C.87,312,.43,310.54.05,309.1a4.66,4.66,0,0,1,.06-1.44c.31-.2.61-.55.83-.5,9.27,2,13.06-3.44,17-10.84C53.11,230.63,88.67,165.15,124,99.56c1.47-2.72,3.21-3.35,6.15-3.75,7-1,10.44,1.83,13.75,8,35.5,65.7,71.4,131.18,107,196.83,2.63,4.84,5.39,7.5,11,6.48C263.69,306.76,265.56,307,268.06,307Zm-27.1-.26L132.76,105.69,24.57,306.77Z"/><path d="M728.63,307c-1.2,3.56-2.06,6.54-3.19,9.41-11.62,29.52-33.27,49.05-62.18,60.5-51.12,20.25-101.78,18.81-151-6.23-24.56-12.49-41.67-32.16-50.7-58.48-.53-1.53-.91-3.12-1.42-4.89a7.76,7.76,0,0,1,2.21-.28c9,2.11,12.86-2.88,16.78-10.21,35.16-65.68,70.79-131.11,106-196.76,2.9-5.41,7-3.63,10.94-4.16,3.68-.49,5.53,1.1,7.26,4.31q54.1,100.35,108.31,200.65c2.61,4.85,5.36,7.06,10.71,6.18A45.49,45.49,0,0,1,728.63,307ZM594.26,105.69c-36.23,67.35-72.1,134-108.17,201H702.44Z"/></g></g></svg>