<svg xmlns="http://www.w3.org/2000/svg" viewBox="0 0 183.8 583.21"><defs><style>.cls-1{fill:#fff;}</style></defs><title>Normal</title><g id="Layer_2" data-name="Layer 2"><g id="Layer_1-2" data-name="Layer 1"><path class="cls-1" d="M38.24,173.13c-1.65,6.86-4.15,13.66-4.76,20.61a145.92,145.92,0,0,0,.15,27.33,78.48,78.48,0,0,1-2.07,29.19C28.47,261.48,25,272.58,22,283.83a14.92,14.92,0,0,0,.3,8.22,70.09,70.09,0,0,0,6.18,13.6,21.51,21.51,0,0,1,2.13,19.13c-.54,1.57-.58,3.32-1.21,4.84a29.84,29.84,0,0,1-2.56,4.2c-1-1.43-2.45-2.74-2.8-4.31A79.7,79.7,0,0,1,23,320c-3.94-.3-5.94,1.45-5.7,5.41.34,5.61,1.3,11.23,1.12,16.81-.09,3-2,6-3.08,9-1.35-.66-3.4-.95-3.93-2C6,338.45,2.63,327.39,5.23,315.09c2.51-11.85,1.8-23.7.07-35.72-2.11-14.63-2.92-29.45-4.19-44.2-.39-4.4-.2-8.87-.78-13.24C0,219.78,1,220.21,0,218.11c2.62-6.4,1.62-5.86,2.34-8.93.81-3.49,1.71-7,2.38-10.48.87-4.54,2.75-9.29,2.09-13.64-2-13.31,1.41-26.1,2.41-39.12,1.06-13.74,3.58-27,9-39.73,2.14-5.08,5.17-9,10.42-10.65,7.13-2.28,14.39-4.12,21.5-6.41,10.06-3.24,18-9.69,25.19-17.21a1.72,1.72,0,0,0,.49-1.36c-2-5.8-2-12.41-7.07-17a13.58,13.58,0,0,1-3.66-5.91c-3-9.85-1.1-19.77.59-29.5,1.34-7.76,6.57-13,13.92-15.76,9.52-3.6,19.13-2.95,28.29,1,6.85,2.93,10.58,8.54,11.4,16.28.9,8.56,3,17.05.92,25.69-.53,2.21-.77,5.19-2.27,6.35-5.12,3.93-5.75,10-8.09,15.2-1.6,3.58-1,7,2.88,9.53,4.89,3.14,9.13,7.6,14.37,9.84A128.5,128.5,0,0,0,151.89,94c8.57,1.76,12.29,7.32,15.39,14.51,5.53,12.8,6.75,26.33,7.92,40,.66,7.74,2.22,15.41,2.83,23.16.35,4.43-.83,9-.54,13.43a92,92,0,0,0,2.48,17c2.36,9.05,4.59,17.91,3.59,27.49-1.83,17.37-2.36,34.89-4.64,52.19-1.88,14.24-1.25,28.06.92,42.17,1.46,9.44-3.38,18.11-7.59,26.43-.3.58-3.18.73-3.4.31-1.27-2.43-2.85-5.07-2.95-7.69-.25-5.93.53-11.9.41-17.84,0-2.34-1.37-4.66-2.12-7l-1.42.16c-.47.78-1.3,1.53-1.35,2.33-.71,10.87-4.56,21.33-3.44,32.5.77,7.81-.09,8.09-8,8.11-12,0-12.68-.11-15.22,11.16a333.5,333.5,0,0,0-7.22,42.71c-.83,9.14,1.36,18.53,2,27.82.93,12.59,3,25.27,2.18,37.77-.67,10.76-4.37,21.39-7.23,31.94-3,11-6.64,21.9-9.86,32.88a6.42,6.42,0,0,0,.31,4.35c3.27,6.12,6.26,12.45,13.84,14.78,3.57,1.11,6.87,3.21,10.11,5.16,1.08.65,2.49,2.79,2.17,3.35a13.68,13.68,0,0,1-4.23,4.47c-2.63,1.75-5.54,3-8.89,4.83-5.2,0-11.37-.1-17.54,0-7.48.15-15,.84-22.43.64a235.58,235.58,0,0,1-25.6-1.95c-5.34-.73-10.56-2.67-15.71-4.43-1.21-.42-2.93-2.57-2.68-3.4.56-1.82,1.93-4.31,3.47-4.75,9.85-2.79,16.64-9.08,21.3-17.82a9.78,9.78,0,0,0,.49-6.63c-4.44-15.69-9.11-31.32-13.79-47-3.6-12-4.17-24.23-2.89-36.57,1.33-12.75,4.11-25.46,4.12-38.19s-2.05-25.48-4.28-38c-2.5-14.06-6.3-27.89-9.36-41.85a222.91,222.91,0,0,1-4.56-64.38c1.13-15.26,6-30.24,9.17-45.35.42-1.94,1.33-3.88,1.3-5.81-.18-11,.27-22.06-1.21-32.88-1-7.3-4.85-14.21-7.43-21.3Zm107.49.1c-1.5,1.82-2.89,2.79-3.26,4.06-2.56,8.71-5.69,17.34-7.16,26.24-3.35,20.15,5.45,38.85,8.06,58.31,1.06,7.88,3.45,15.73,3.44,23.58,0,12.42-1.57,24.82-2.34,37.24-.08,1.32.48,3.68,1.18,3.86a16.37,16.37,0,0,0,6.76.13c.51-.09.77-2.49.86-3.85.31-4.36-.29-9,.9-13.05,1.61-5.53,4.8-10.58,6.83-16,1.07-2.86,2.13-6.34,1.47-9.13-2.1-8.88-5-17.58-7.63-26.34-3.38-11.2-5.47-22.42-4.33-34.32C152.12,207.2,152,190.43,145.73,173.23ZM93.67,332.84l-2.11,0c-.32,3.59-.78,7.18-.94,10.78-.47,11-1,21.93-1.2,32.9-.4,18.93-.58,37.87-.94,56.8-.15,8-2.08,16.24-.46,23.8a101.18,101.18,0,0,1,.33,39.15c-3.62,20.58-.57,41.19-1.09,61.77a5,5,0,0,0,.63,2.89c.89,1.19,2.16,2.87,3.32,2.91a5.8,5.8,0,0,0,4.52-2.08,13,13,0,0,0,1.34-6.21c.16-6.65.19-13.32.05-20-.28-13.27.16-26.63-1.3-39.77-1.55-13.85-2.63-27.42.89-41.1.75-2.94.22-6.29-.11-9.41a430.17,430.17,0,0,1-2-62.28C95.25,366.33,94.06,349.57,93.67,332.84Zm50.19,2.22c-.49,3.39-1,5.38-1,7.35s1,4.14.87,6.16c-.09,1.18-1.55,2.32-2.54,3.34a16.83,16.83,0,0,1-2.49,1.8l.36,1.14,9.61-1.54C144.64,348.38,150.18,340.5,143.86,335.06Z"/></g></g></svg>