<svg xmlns="http://www.w3.org/2000/svg" viewBox="0 0 209.59 575.48"><title>ObeseAsset 20</title><g id="Layer_2" data-name="Layer 2"><g id="Layer_1-2" data-name="Layer 1"><path d="M31.76,244c-2.18,10.39-4.39,20.78-6.54,31.18-1.44,7-2,14.31-4.39,21-3,8.27.24,14.62,4.22,21,5,8,4.88,22.24-.81,30.71-6-4.27-3.28-10.79-4.07-16.68-3.85,1.54-6,3.76-5.91,7.49.17,5,.11,10.06,1.15,14.88.94,4.37-.79,7.45-3,10.6-1.34,1.94-3.23,2.22-4.17-.25-3.86-10.15-9.16-20-7.08-31.49.44-2.44,1.53-4.8,1.69-7.24a144.62,144.62,0,0,0,.23-14.87c-.61-15.6-1.5-31.18-2.08-46.78-.48-12.81-1.5-25.67-.81-38.43,1-18.42,2.37-36.93,5.47-55.07,1.59-9.28,6.37-18.06,7.36-27.79.58-5.75,2.07-11.42,3.26-17.1,2.74-13.16,11.5-20.59,23.81-24.33a174.93,174.93,0,0,1,20.76-5.4c12.41-2.16,18.27-9.76,20-21.61.8-5.61,2.05-11-1.56-16.34a37.21,37.21,0,0,1-4.81-10C71.33,37.07,75,27,77.3,17.16,80.33,4.35,91.76,1.87,103,.26c7.4-1,14.21,1.19,20.69,4.36,6.81,3.34,10.2,9.24,11.45,16.58.71,4.18,2.34,8.34,2.33,12.5,0,8,1,16.3-4.56,23.39-9.21,11.74-3,33.08,10.63,36.73,5.95,1.59,12.08,2.59,17.92,4.49a190.93,190.93,0,0,1,21.24,8.21c6.35,3,9.18,9.29,10.92,15.51,2.73,9.74,4.45,19.75,6.67,29.64a34.3,34.3,0,0,0,2.18,7.63c3.72,7.55,4.25,15.63,4.74,23.79.73,12.11,2.12,24.21,2.33,36.33.26,14.63-.3,29.28-.74,43.92-.26,8.47-1.06,16.93-1.51,25.39-.88,16.87-2.24,33.75,2.15,50.43.46,1.77-.62,3.91-.88,5.9-.24,1.82-.32,3.65-.4,4.53-2.25,4.58-4.1,8.58-6.18,12.45a21,21,0,0,1-3,3.54c-1-1.05-1.94-2.06-2.85-3.14-2.57-3.05-2.43-6.16-1.61-10.1,1.07-5.12.75-10.63.29-15.9-.17-2-2.4-3.81-3.69-5.71l-1.84.61c0,2.72.06,5.44,0,8.16a14.17,14.17,0,0,1-.61,4.9c-.49,1.21-1.89,2-2.89,3-.84-1.12-2.17-2.12-2.45-3.37-1.05-4.66-1.77-9.4-3.5-14.17-1.15,7.27-2.62,14.5-3.39,21.8-2.23,21.05-6.82,41.59-12,62.11-1.62,6.47-.29,13.8.36,20.68.76,8.08,2.35,16.07,3.39,24.13,1.64,12.75-3.41,24.19-7.24,35.86-4.92,15-9.95,30-14.57,45.06-.41,1.34,1.4,4.18,2.93,5.14,5.69,3.59,10.35,7.44,11.28,14.85.71,5.71-.72,8.41-6.71,9.64-9.19,1.9-18.26,4.8-27.54,5.72-10,1-20.28.53-30.41.11-7.26-.3-14.46-1.79-21.72-2.3-4.1-.29-8.13,2.51-12.45-.18-3.29-2-7.23-3-10.63-4.9-4.05-2.27-5-8.22-1.5-12.26a64.44,64.44,0,0,1,10.8-9.49c3.36-2.47,4.13-5,2.83-9C57.67,520,53,502.79,46.81,486.17s-5-33-1.09-49.52c3.15-13.21-.47-25.54-3.23-38.28-4.22-19.5-7.36-39.25-10.26-59-2-13.64-4.06-27.47-3.8-41.17.26-14.2,3.39-28.34,5-42.54.45-3.88.06-7.85.06-11.78ZM96.27,559.68c2.23-1.93,3.9-3.59,4-3.47,3.15,2.7,5.87-.26,8.75-.42,5.3-.29,6.94-2.2,6.73-7.5q-1-25.68-1.68-51.37c-.19-7.29.33-14.6,0-21.88-.68-13-2.91-25.92,1.74-38.89s3.15-26.33,1.34-39.5c-1.73-12.67-4.45-25.21-6.87-37.77-.6-3.11,1.12-8-4.13-8.28-5.41-.3-5.43,4.8-6.06,8.27-2.82,15.72-5.71,31.45-7.74,47.28-1.37,10.76.06,21.52,2.74,32.13a73.71,73.71,0,0,1,2.44,17.94c0,13.46-.86,26.92-1.22,40.38q-.74,27.14-1.19,54.29C95.07,553.51,95.78,556.14,96.27,559.68Zm85.89-237.95c4.81-5.21,8.52-17.19,7.15-23.67-2.87-13.5-5.88-27-8.68-40.5-1.11-5.37-1.8-10.83-2.68-16.25l-1.72.05c0,4-.77,8.27.14,12.1,3.18,13.29,5.7,26.63,5.78,40.34C182.21,303.07,182.16,312.34,182.16,321.73Z"/></g></g></svg>