<svg xmlns="http://www.w3.org/2000/svg" viewBox="0 0 208.87 583.31"><title>OverweightAsset 19</title><g id="Layer_2" data-name="Layer 2"><g id="Layer_1-2" data-name="Layer 1"><path d="M183.31,318.35c-2.17,5.15,2.2,12.49-5.12,16-5.33-5.64-6.89-19.2-3.32-25.63a193.77,193.77,0,0,0,8.94-17.82,11.51,11.51,0,0,0,.05-7.25c-3.09-10.36-6-20.8-10-30.85-4.4-11.24-5-22.82-3.9-34.41,1.22-13-.39-25.54-3.43-38.06a15.61,15.61,0,0,0-2.12-5.45c-1.23,5.67-2.42,11.34-3.7,17-1.51,6.7-.67,13,1.61,19.55,5,14.35,3.48,29.3,2.87,44.08-.27,6.57-1.35,12.88.1,19.68,1.48,7,.9,14.55.22,21.77-1.51,16.21-3,32.47-5.72,48.49-2.94,17.19-7.34,34.14-11.1,51.19-3.81,17.3-1.2,34.45,1.24,51.6,1.92,13.52,4.72,27.13.57,40.6C146.77,501,142.19,513,137.81,525c-2.29,6.25-5.31,12.26-7.22,18.61-.73,2.44.06,5.89,1.33,8.25a26.76,26.76,0,0,0,7.16,8.87c5.23,3.86,9.9,7.64,9.14,16-3.41,1.2-7.63,3.4-12.09,4.11-7.94,1.26-16,1.83-24,2.32-16.59,1-33-1.24-49.41-3.12a6.7,6.7,0,0,1-2.86-.83c-2.63-1.74-5.14-3.65-7.7-5.49,2.4-2.39,4.4-5.63,7.29-7,6.78-3.2,13.19-6.66,16.67-13.56,1.3-2.56,2.46-6.14,1.68-8.62-2.51-7.9-6.06-15.48-9-23.24C63.65,508,57.5,495,56.27,480.78,55.43,471,55,461.05,58,451.38c.26-.83-.54-2-.76-2.68C58,445,59,441.32,59.64,437.54c.52-2.94.59-6,1-8.92,2.82-19.56-1.75-38.29-6.16-57.09-4.87-20.69-10.58-41.24-10.89-62.74-.07-4.81-1.18-9.61-1.13-14.41.07-7.94.74-15.86,1.09-23.79.16-3.78.3-7.56.19-11.34-.3-10.13-.76-20.27-1.12-30.4-.19-5.18-.06-10.32,1.79-15.29.15-.42,1.39-1.47.76-2.22,1.59-5.43,3.92-7.13,3.3-12.08-1.08-8.62-3-17.14-4.62-25.7l-1.69-.13c-1.13,10.44-3.13,20.88-3.21,31.33-.12,16.37,1.21,32.72-4.76,48.54-2.44,6.5-3.88,13.37-5.78,20.08,0,.16,0,.36-.12.48-8.95,11.22-2.9,21.43,3.22,30.59,6.28,9.41,3.29,18.08.8,27.18-.21.78-1.44,2-1.94,1.85-1.16-.26-2.83-1-3.09-1.92a56.84,56.84,0,0,1-1.52-8.74,49.11,49.11,0,0,1,0-5.36c-4.66,1.74-7.34,3.79-6.6,8.85.77,5.26,1.05,10.59,1.44,15.89.1,1.3.22,2.94-.44,3.89a56.49,56.49,0,0,1-5.16,5.7c-1.42-1.69-3.32-3.18-4.17-5.13a128.18,128.18,0,0,1-6.45-17.23c-.81-3-.35-6.68.47-9.81,4.16-15.87,1.45-31.55-.56-47.34C2.41,257.6.39,242.86,0,228.11c-.22-8.78,2.55-17.64,4-26.46.8-4.7,2.65-9.42,2.45-14.06C5.9,173.19,8.29,159.16,10,145c1.4-12,3-23.64,7.76-34.86,3.3-7.83,7.42-14,16.42-15.75,7.66-1.51,15.44-2.94,22.73-5.61,6.79-2.49,13-6.53,19.45-10,1.6-.86,3-2,4.56-3,4-2.58,5.44-6.26,4.07-10.75a18.7,18.7,0,0,0-3.25-6.69c-8.17-9.43-8.55-20.18-6.35-31.71,1.15-6,.82-12.37,5.24-17.34A34.25,34.25,0,0,1,84.8,5.08c8.12-6.46,32.44-7.74,41.69,2,3.48,3.65,6.6,7.47,6.24,13a11.24,11.24,0,0,0,.69,5.4c3.34,7,1.32,14.13.8,21.14-.2,2.63-2.27,5.56-4.3,7.52-4.58,4.43-5.86,10-6.06,15.82-.06,1.72,1.79,3.92,3.34,5.21,2.64,2.22,5.85,3.74,8.63,5.81,10.25,7.69,22.39,9.32,34.49,11.79,8,1.63,15.27,5.18,19,14.28,5.54,13.46,7.4,27.4,9.78,41.55,2.49,14.8,2,29.48,2.74,44.23a35.64,35.64,0,0,0,3.48,12.41c4,8.92,4,18.22,3,27.49-2.21,20.5-5.37,40.9-7.22,61.43a63.57,63.57,0,0,0,2.35,22.17c3.43,12.4-2.47,22.43-6.75,32.91-.58,1.43-5.24,2.89-5.57,2.46-1.67-2.18-3.45-5-3.5-7.56-.14-6.5,1-13,.86-19.51,0-2.41-2.16-4.77-3.34-7.15Zm-78.95,53h-.6c-.36,7.88-.61,15.78-1.09,23.66-.93,15.26-1.61,30.55-3.13,45.76C98.81,448,98.48,455,100.61,462a47.5,47.5,0,0,1,1.1,23.21c-1.2,6.2-2.63,12.45-2.87,18.72-.68,17.63-.86,35.27-1.11,52.91-.09,6.24,1.15,6.89,7.35,7.09,4.78.16,5.3-2.87,5.33-6,.06-6.64-1-13.35-.42-19.92,1.47-16.72.11-33.17-2.88-49.62a60.64,60.64,0,0,1,.64-26.69,60.69,60.69,0,0,0,1.53-18.25c-.88-16.76-2.41-33.48-3.61-50.23C105.15,386,104.79,378.67,104.36,371.39Z"/></g></g></svg>