<svg xmlns="http://www.w3.org/2000/svg" viewBox="0 0 104.88 268.96"><title>Recomp</title><g id="Layer_2" data-name="Layer 2"><g id="Layer_1-2" data-name="Layer 1"><path d="M66.53,44.84c.22.14.33.2.31.15Z"/><path d="M104.2,140.29c-3.12-6.25-4.44-12.95-5-19.85s-1.09-13.61-3.07-20.19h0c-1-2.81-1.41-5.84-3.17-8.32-1.23-1.74-.27-2.64-.22-4.9.11-5.43-3.38-13.41-6.27-15.61,1.35-5.85.73-10.77-.5-13.28C81.46,49,66.3,45.28,66.51,44.86c0,0,0,0,0,0,.11-.29-1.3-1-2.43-1.66-.81-.44-2-1.1-3.46-1.94h0a1.9,1.9,0,0,1-.85-1.49,69.88,69.88,0,0,1,.52-14.17A3.45,3.45,0,0,0,63.46,22s.3-2.14-.27-3c-.39-.59-1.42-.23-2,.06l0-.5h0c0-.47.1-.94.16-1.42a5.78,5.78,0,0,0,0-4.25A15.2,15.2,0,0,0,58,4.53C56.07,2.17,54.4-.14,50.26,0a11.82,11.82,0,0,0-9.33,4.33c-4,4.46-4.25,9.34-2.88,14.7h0c-1.94-.16-2.38,1-2,2.54.47,1.93.63,4.16,3.14,4.76.91.22.85.88.91,1.56a66.07,66.07,0,0,0,.75,7.6c.83,4-.58,6.32-5.27,8.52-.48.16-1,.37-1.69.61-1.54.6-3.37,2.06-5,2.1-5.28.13-22.23,8.76-18,27.4a33.16,33.16,0,0,0-3,8c-1.26,6.31.73,9.19.68,12,0,2.12-.11,1.44-1.27,4.63a86.58,86.58,0,0,0-4.47,21c-.47,2.92-.82,6-1.26,9.1s0,6.6-.92,9.82a6.33,6.33,0,0,1-.19,1.77c-.86,2-.32,3.43,1.57,4.46a12.74,12.74,0,0,1,1.62,1.25c3.67,2.69,3.68,2.68,6.39-.88l.88-1.26,0-.18h0c.06-.27.18-.47.51-.43.26.35.58,1.18,1,.55.67-1.07,1.7-2.16,1-3.65l.22-.1c-1.67-1.57-1.19-4.2-2.95-5.77A6.17,6.17,0,0,1,8.73,129c.62-4.13,2.46-7.82,4.46-11.37,4.66-5.46,5.62-13.08,5.8-21a10.93,10.93,0,0,1,.69-2.53h0c2.79-2.48,3.43-9.83,3.5-14.21,1.38,2.57,2.07,9.08,3.9,11.42s4,5.47,3.46,8.35c.47,2.89-.06,4.25-.26,6.57a21.22,21.22,0,0,1-1.43,5.32c-.9,3-.82,6.3-1.81,9.17-2.26,6.57-2.8,13.51-5,20.06A19.35,19.35,0,0,0,20.75,148c0,.14.07.27.11.4l-.27,1.1a179.94,179.94,0,0,0,0,19.57c.15,2.26,1.69,4.21,1.25,6.52a1.21,1.21,0,0,0,.18.93c.38.52.14,1.16,0,1.72A59.14,59.14,0,0,0,20.56,187a8.44,8.44,0,0,1-.45,4.22c-1.05,3.21,0,5.61-1,8.82h0a1.9,1.9,0,0,0-.11,1c1,6.08-1.08,21.84-.27,32.4l2.51,21.45c-.75,3.48-7,7.89-9.34,9.2,1-.92-5.39,3.53-.52,4.87l15.6-.25c1.54,0,3.31-1.26,2.95-2.77-3.38-14.15,6.15-52.31,4.17-63.85a4.56,4.56,0,0,0-.57-1.52c0-.31.08-.63.11-.94.65-5.69.09-11.47,4.16-16.76a13.14,13.14,0,0,0,2.44-11.19h0c.12-.37.24-.74.35-1.11a12.83,12.83,0,0,1,1.3-3.81c2.09-5,5.39-9.55,5.86-15.17h0a8.31,8.31,0,0,1,.16-1.51c.38-1.34.82-2.67,1.25-4,1.36-2.08,2.86-2.23,4.82-.8-.2,2.15,1.1,3.85,1.67,5.8a24.94,24.94,0,0,0,3.76,8.86,68.93,68.93,0,0,1,7.46,15.88c1.13,3.31,1.88,6.83,4.05,9.6,3.59,4.59,3.36,10.08,4.15,15.35a4.42,4.42,0,0,0-.23.81c-1.95,11.34,7.23,48.42,4.33,63.11a2.92,2.92,0,0,0,2.79,3.5l8.08.19c.13,0-1.56,0,2.86.06,6.87.12-2.83-7.89-2.43-7.17-2.37-1.31-2-3.41-2.77-6.9l2.51-21.45c.81-10.55-1.37-26.15-.37-32.23a1.49,1.49,0,0,0,0-.47h0c-.14-3.51-.45-5.25-1.62-7.54-1.35-2.64-1.38-4.75-2-7.7h0a42.78,42.78,0,0,1-2-7.72h0c-.22-1.42-1.28-2.77-.91-4.2,1.81-5.36,1.87-10.5-.16-17.4a3.93,3.93,0,0,0-.41-2.56h0l-.19-1.51q-.47-2.55-1-5.12h0c-.06-4.07-1.69-7.74-2.88-11.53-2.09-6.61-5.15-12.9-6.3-19.8-.14-.37-.29-.74-.43-1.12h0c-.43-1-.25-2.3-1.17-3.15,0,0,0,0,0,.07s0,0,0-.07c-.45-1-.23-2-.45-3-.75-3.2-2.11-6.13-.19-10.13A8.43,8.43,0,0,0,71,95.47a12.31,12.31,0,0,0,.25-1.69c.12-3.37,2.39-5.94,3.25-9h0c.41-1.26.73-2.55,1.25-3.77s.76-.33,1,.21h0c.07,6.79,5.09,11.48,7.46,17.64,3,7.7,3.68,16.63,7.37,24,.34,1,.71,1.9,1,2.87,1,2.9,2.05,5.79,1.17,8.93-1,4.41,0,8.89-.55,13.31h0c.3,3.11,2.14,1,3.35,1h0a5.25,5.25,0,0,1,1.2.38c2.85,1.7,4-.36,5.12-3.53a5.58,5.58,0,0,1,1.61-2.41h0C105.29,142.26,104.69,141.27,104.2,140.29ZM55.94,14.55Z"/></g></g></svg>