<svg xmlns="http://www.w3.org/2000/svg" viewBox="0 0 360.62 341"><defs><style>.cls-1{fill:#fff;}</style></defs><title>scale</title><g id="Layer_2" data-name="Layer 2"><g id="Layer_1-2" data-name="Layer 1"><path class="cls-1" d="M180.43.17c46.33,0,92.65-.1,139,0,24.7.07,41.1,16.69,41.13,41.55q.09,118.49,0,237c0,7.66.16,15.33,0,23a39.3,39.3,0,0,1-39.5,39.16c-34,.17-68,.05-102,.06-50.66,0-101.32.11-152,0-12.13,0-24.42.21-36.35-1.59C13.64,336.76,1,321.51.48,304-.06,285.88.17,267.7.16,249.54q-.06-74.5,0-149c0-19.5.5-39-.11-58.49C-.74,17.69,18.42-.4,42,0,65.1.4,88.27.08,111.43.08h69ZM93.79,77.53c-.8,2.73-1.81,4.82-2,7-.81,11.31,6.59,25.18,24.61,25.07,32.83-.19,65.66,0,98.49-.06,11.82,0,23.7.21,35.43-.89,11.93-1.12,20.2-12.9,18.5-24.74-.31-2.15-1.41-4.19-2.28-6.66-4.09,2.27-7.31,4.29-10.73,5.9-2.87,1.36-6.31,5-8.91.1-2.46-4.64,2.24-5.89,4.89-7.71,3.24-2.23,6.77-4,10.81-6.41-2.18-3-4.1-5.44-5.79-8-2.09-3.22-4-3.31-6.69-.52-5.18,5.39-10.43,10.73-16,15.67-1.31,1.15-4.09.64-6.19.9a46.21,46.21,0,0,1,.57-6.69c.21-1,1.5-1.7,2.35-2.48,5.48-5,11-10.05,17.48-16-4.84-3.4-8.21-5.64-11.44-8.07-2.51-1.9-4.06-1.34-5.52,1.31a82.33,82.33,0,0,1-6.8,11c-1,1.31-3.58,1.43-5.44,2.1-.48-2-1.48-4-1.29-6s1.51-3.61,2.5-5.31c6.74-11.64,5.41-8.68-4.62-13.33-3.51-1.64-5.52-.56-6.4,3.44-1.5,6.8-3.35,13.53-5.21,20.24-.77,2.79-1.93,5.6-5.77,4.76s-3.28-3.89-2.7-6.42c1.12-4.83,3.06-9.5,3.93-14.37,2-11.12,6.15-11.55-7.64-13-4.51-.47-5.88,1-5.81,5.42.23,15.66.19,31.33.21,47,0,4.16.25,8.39-.44,12.46-.29,1.71-2.72,3.07-4.18,4.59a38.11,38.11,0,0,1-4-4.7c-.52-.85-.12-2.28-.12-3.45l0-49c0-13.6-1.89-15-15.31-11.4-3.38.9-4.14,2.43-3.08,5.78,2.09,6.63,3.88,13.37,5.55,20.13.66,2.68,1.45,6-2.55,6.94s-5.1-2.05-6-5.1c-1.45-5.11-2.86-10.23-4.4-15.32-2.77-9.14-2.8-9.13-11.65-6a8.86,8.86,0,0,0-.94.34c-3.11,1.42-4.39,3-1.87,6.44a31.77,31.77,0,0,1,5,9.65c.56,1.88-.87,4.36-1.4,6.57-1.93-.89-4.44-1.3-5.66-2.77-2.3-2.79-3.8-6.22-5.73-9.32-.9-1.45-2-2.77-3.33-4.52l-12.48,9.22a31.12,31.12,0,0,0,2,2.63q7.85,8,15.71,16c2.16,2.2,3.62,4.74,1,7.36-2.47,2.49-4.93,1-7-1-3.35-3.22-6.68-6.46-9.86-9.84-9.06-9.64-10.24-9.52-16.88,2-.15.25,0,.65,0,1.5l11.67,6.89c2.78,1.64,5.25,3.63,3.16,7.15s-4.77,1.91-7.36.44C102.49,82.29,98.7,80.24,93.79,77.53Z"/></g></g></svg>