<svg xmlns="http://www.w3.org/2000/svg" viewBox="0 0 568.05 158.89"><title>SimplyfitLogo</title><g id="Layer_2" data-name="Layer 2"><g id="Layer_1-2" data-name="Layer 1"><path d="M522.58,133.19c-.56-2.23-1.85-2.31-3.58-2.26a51.54,51.54,0,0,1-5.56-.06c-5.57-.44-9.08-3-10-7.57-1.31-6.57-2.83-13.15-3.51-19.8-1.05-10.38-4.64-19.25-12.8-26.06-2.84-2.37-5.39-5.08-8.17-7.53-4.22-3.71-5-11.32-.93-14.88,5.73-5.05,11.78-9.74,17.82-14.42,2-1.57,3.68-3,2-5.66-1.59-2.49-3.83-2.65-6.4-.58-3.35,2.7-6.68,5.43-10,8.14a21.75,21.75,0,0,0-.34-16.83c-.87-2.05.43-2.95,2.06-3,2.64-.14,4.33-1.59,4.69-3.85A52.45,52.45,0,0,0,488,10.1c-.07-5.92-3.42-9-9.17-8.61-7.56.58-11.07,3.94-10.33,10.07.35,2.82.95,5.62,1.35,8-4.44,1.82-8.73,3-12.46,5.22-6.08,3.57-11.84,7.71-17.66,11.71-2.67,1.84-3.17,4.18-1,6.9,2.92,3.7,5.9,7.57,9.58,10.41,4.18,3.23,5,6.74,3.9,11.52-.69,3-1.75,6.6-.74,9.17,2.68,6.81,1.34,13.49.92,20.25-.16,2.55-1.55,3.56-4,4.38a43.16,43.16,0,0,0-11.13,5.36c-3.67,2.56-6.74,6-10,9.11a14.17,14.17,0,0,1-9.57,4.25c-4.6.18-5.79,2.36-4.07,6.76,1.34,3.43,2.71,6.84,4.37,11H394.93l0,.81,4.42.53h-11a12.26,12.26,0,0,0,1.63-1.07c1.5-1.6,4.53-2.88,2.76-5.5-.78-1.17-3.53-1-5.39-1.44a4.53,4.53,0,0,0-1,0c-7.71.12-11-2.46-12.44-10.09-1.39-7.16-2.8-14.31-3.92-21.51-1.66-10.8-7.47-18.86-16.32-24.73-3.31-2.2-4-4.69-3.36-8.19a14.37,14.37,0,0,1,5.84-9.72c5.26-3.78,10.22-8,15.12-12.26,3-2.6,2.61-4.33-.55-6.64-1.94-1.42-3.28-.93-4.81.58-2.87,2.85-5.85,5.58-8.29,7.89-.54-4.34-.85-8.61-1.7-12.76-.35-1.7-2.05-3.08-2.8-4.75-.86-1.93-2.1-4,.59-5.75,5.45-3.48,6.77-12.76,2.6-17.71C353.61.06,348-.57,342.69,1.71c-3.67,1.58-5.13,4.7-4.46,9.48.21,1.5.73,3.05.49,4.47s-1,3.24-2,3.57c-9.74,3.29-17.5,9.84-25.79,15.49-3.84,2.62-4.47,4.82-1.53,8.38a90.51,90.51,0,0,0,12.06,11.83c2.31,1.91,2.76,3.17,1.17,5.68-3.47,5.45-3.42,11.18-.46,16.84a16.07,16.07,0,0,1-7.81,21.77,33.75,33.75,0,0,0-7.12,4.18c-3.5,2.67-6.79,5.61-10.11,8.51A19.63,19.63,0,0,1,287.08,117c-2,.31-3.82,1.43-5.92,2.26,2.09,5.32,4,10.3,6.08,15.48H262.72c1.11-5.73.77-6.11-4.92-5.94a32.2,32.2,0,0,1-4.17,0c-5.78-.61-8.87-3.47-9.79-9.08-.58-3.54-1.09-7.1-1.48-10.66-1.5-13.89-5.83-26.62-14.9-37.51-3.38-4.06-2.56-14.18,1.4-17.8,4.35-4,8.87-7.78,13.29-11.7,1.64-1.46,3.13-3.08.72-5.12-2-1.66-3.77-4.13-6.68-1.17-2.32,2.36-4.84,4.54-7.14,6.67l-7.5-20.27c.5-.2,1.13-.43,1.75-.69,5.11-2.12,6.41-4.64,5.2-10.07A19.45,19.45,0,0,1,228.14,9c-.31-3.79-1.85-6.81-5.73-7.84A16.6,16.6,0,0,0,208.8,3.48c-.51.33-.66,1.42-.74,2.18-.35,3.77-.61,7.55-.91,11.3-1.75.47-3.67.53-5,1.43-7,4.64-13.87,9.48-20.74,14.32A14.49,14.49,0,0,0,179.29,35c-2.25,2.51-2.16,5.1-.59,8A33.09,33.09,0,0,0,190.25,54.8c2.6,1.69,2.92,3.49,1.95,6.45a34.41,34.41,0,0,0-1.9,11.12c.1,6.47.88,12.94,1.58,19.38.26,2.37-.34,3.67-2.66,4.44a45.47,45.47,0,0,0-18.77,12.18,33.14,33.14,0,0,1-15.24,9.25c-3.81,1.07-4.16,2-2.55,5.77s3.17,7.4,4.73,11c-4.33,3.11-17.26,2.4-24.59.52.19-.41.38-.79.53-1.18,1.81-4.65.27-6.63-4.6-6a21.33,21.33,0,0,1-2.76.28c-6.11.06-9.91-3-10.89-9-1.08-6.63-2.16-13.26-2.88-19.93-.82-7.56-2.82-14.5-8.23-20.16-1.59-1.67-2.8-3.69-4.25-5.5A5.84,5.84,0,0,1,98.93,67c1.06-2.65,2.49-5.66,2.11-8.27-.79-5.42,2.2-8.35,5.62-11.32,1.91-1.68,4.11-3.07,5.83-4.92,1.22-1.3,3-3.65,2.5-4.65a9.81,9.81,0,0,0-4.91-4.7c-1.24-.5-3.57.81-5,1.89s-2.58,3.06-4,4.77l-8.71-13c-1.4-2.1-.34-3.32,1.42-4.53,5.53-3.82,6.3-5.86,4.92-12.28a16,16,0,0,1-.36-2.39C98.13,3,96.68,1.09,92.21.31,85-.95,76.71,1.44,78.35,11.7a17.06,17.06,0,0,1-.26,4.17C75.23,17,72.7,17.66,70.61,19c-4.2,2.64-8.27,5.54-12.21,8.57-3.3,2.54-6.34,5.42-9.51,8.13-2,1.73-2,3.79-.91,5.94a16.08,16.08,0,0,0,2.56,3.7c3.93,4,8,8,12.24,12.21-5.07,6-4,13.15-2.54,20.46,1,5.17,1.58,10.44,2.36,15.83-10.55,1.83-18,8.08-25,15.18-2.9,2.9-7,4.58-10.69,6.73-1.85,1.09-3.83,2-5.88,3l6.39,16H5.87l-.42,1.06a21.2,21.2,0,0,0,3.83,2.8c5.61,2.47,11.3,4.74,17,7.08a2.33,2.33,0,0,1-2.09,0c-6.85-2.79-13.69-5.62-20.57-8.36a15.38,15.38,0,0,0-3.29-.54l-.3,1.3c2.74,1.1,5.45,2.27,8.21,3.28,9.58,3.53,19.19,7,28.78,10.49,1.93.71,3.85,2.09,5.76,2.06,7.53-.12,15-.73,22.56-1.06,7.75-.33,15.52-.76,23.28-.75,15.52,0,31.05.35,46.58.49a14.28,14.28,0,0,0,3.1-.65c0-.36-.06-.72-.1-1.09H128l0-.86a39.26,39.26,0,0,1,4.06,0c5.75.58,11.49,1.73,17.24,1.78,20.63.18,41.26.22,61.88-.1,27.24-.43,54.47-1.59,81.64,1.51a70.25,70.25,0,0,0,7.95,0c0-.42.09-.83.13-1.25l-5.48-1.46c0-.42,0-.84,0-1.26,2.83-.06,5.71-.5,8.47-.1,6.51.94,12.94,3.11,19.45,3.28,17.62.48,35.26.17,52.89.16a23.13,23.13,0,0,0,2.73-.34L379,151.2H323.69v-1h65.75l-4.53,1.95c.07.33.15.66.23,1,1.44,0,2.87,0,4.31,0,4.51-.06,9-.32,13.54-.15,9.49.35,19,1.48,28.46,1.28,14.69-.3,29.32-2.08,44.07-1,6.32.48,12.76-.74,19.1-.42,8.33.42,16.62,1.66,24.77-1.13l-.12.13.17,0,0,0,5.56-3.24-5.1-.5c16.15-1.48,25.54-5.75,27.12-12.17-7-.31-13.91-.54-20.83-1C524.88,134.82,522.79,134,522.58,133.19ZM47.68,150.91l0-.53H69.43v.53Zm40.9-15c-6,.31-11.92,1.2-17.87,1.83-.06-.31-.11-.63-.17-.95l2.93-.71c-7.76,0-14.93.07-22.1,0-2.5,0-5-.54-7.51-.83-3.74-.43-5.8-2.61-6.36-6.25s.53-7,3.91-8.91c4.22-2.39,8.65-4.42,13-6.58a42.33,42.33,0,0,1,5.34-2.49c9.81-3.34,17.58-9.11,22.32-18.52,1.26-2.51,2.66-2.34,5.22-1.4,5.85,2.16,8.36,5.78,9.31,12,.91,6.05,4,11.76,6,17.64,1.7,4.86,3.3,9.76,5.1,15.09C100.84,135.8,94.7,135.56,88.58,135.87Zm32,4.54v-.1h40.2v.1Zm26.15,9.27-.09-.4h58.66v.4Zm38.06-9.24v-.1h34.58v.1Zm50.94-3.77c-5.93-.3-11.48-.72-17-.84-14.71-.29-29.42-.46-44.14-.65-5-.06-6.95-1.15-7.92-4.57A8.89,8.89,0,0,1,171,119.93c7.63-3.86,15.28-7.76,23.12-11.17a32.08,32.08,0,0,0,14.94-13c1.33-2.15,2.88-4.16,4.41-6.35,3.42,1.67,6.76,3,9.79,4.92a6,6,0,0,1,2.22,3.9,48.07,48.07,0,0,0,8.14,21.54C237.17,124.87,237.64,130.42,235.68,136.67Zm49.67,3.79h-34v-.17h34.05Zm33.8-99.53L326,38c-.31,3.6-.54,6.41-.78,9.22l-.8.31Zm-10,99.53v-.17h40.92l0,.17ZM366.34,133c-.46,2-1.16,2.91-3.41,2.87q-14.6-.23-29.21-.1c-1.77,0-3.55,1-5.33,1-3.54.06-7.1-.15-10.64-.39-4.62-.32-9.22-.92-13.84-1.12-3.24-.14-6-.64-7.11-4.22-1.28-4.3-.32-8.45,3.05-10.6A96.75,96.75,0,0,1,310.33,115c5.11-2.45,10.22-4.91,15.44-7.12a21.81,21.81,0,0,0,11.06-9.57c1.73-3.12,3.82-6,5.83-9.17,3.54,1.67,6.85,2.85,9.7,4.73a8.17,8.17,0,0,1,3.27,4.92,53,53,0,0,0,7.52,20.33C365.76,123.27,367.5,127.81,366.34,133Zm82.57-90.84,7.26-3.39-1.12,10.07-.81.31C452.52,46.89,450.8,44.64,448.91,42.15Zm-23.14,81.24A13.06,13.06,0,0,1,431,119c7.74-3.92,15.49-7.84,23.48-11.2,5.64-2.36,9.54-5.82,11.41-11.68a79.28,79.28,0,0,1,3.3-7.5c5.49,2,10.77,3.69,15.83,5.89,1.17.51,2.34,2.76,2.25,4.12-.44,6.66,1.63,12.41,4.85,18.13,2.18,3.88,3.5,8.3,4.79,12.6s.06,5.81-4.54,5.83c-18,.07-35.93,0-53.9,0h-5.91C426.05,135.13,422.36,129,425.77,123.39Zm26.08,13.94H429.66c0-.2,0-.39,0-.59h22.18Zm-47.42,13,33.29,1.1C426.14,153,415.25,153,404.43,150.35Zm96.62-.85H430.53v-.68h70.51Z"/><path d="M368.42,156.06q-57,0-114.1,0c-10.66,0-21.31.35-32,.61a13.93,13.93,0,0,0-3.08.78c.09.46.18.93.26,1.39H224c38,0,76.07.09,114.1,0,21.1-.07,42.19-.45,63.29-.75a59,59,0,0,0,6-.66c0-.45,0-.91-.05-1.36Z"/><path d="M184.48,156.3c-12.16-.1-24.32.28-36.49.39q-36.87.31-73.75.57c-1,0-2,.18-3,.28,0,.28.07.56.11.84H211l.06-.7c-.74-.09-1.48-.22-2.23-.25C200.69,157,192.59,156.36,184.48,156.3Z"/><path d="M563.51,138.19l.1-.07c-4.87,1.78-10.75.66-15.15,5.07,5,.55,18.8-3.15,19.59-5.35Z"/><path d="M464.43,158v.59h21.51c0-.19-.05-.39-.08-.59Z"/><path d="M533.41,146.54c4.41,1.79,8.7.87,12.59-2.37C541.46,142.45,538,145.47,533.41,146.54Z"/><path d="M554.44,146.31l1.11.75a12.72,12.72,0,0,0,2.57-.86c1.68-1,3.27-2.1,4.89-3.17a39.84,39.84,0,0,0-6.58.56C555.6,143.8,555.09,145.36,554.44,146.31Z"/><path d="M566.06,136.77c-5.84-2-10.37-1.33-12.52,2,1.79-.16,3.37-.35,5-.45s3.41-.15,5.11-.22l-.09.06Z"/><path d="M23.45,149.28l-10.81-4C14.51,149.44,18.27,150.65,23.45,149.28Z"/><path d="M520.57,153.62c2.43-.55,4.81-1.31,7.2-2l-.33-1.24-8,1.48C519.84,152.52,520.34,153.67,520.57,153.62Z"/></g></g></svg>