<svg xmlns="http://www.w3.org/2000/svg" viewBox="0 0 303.93 498.05"><defs><style>.cls-1{fill:#231f20;}</style></defs><title>Surplus</title><g id="Layer_2" data-name="Layer 2"><g id="Layer_1-2" data-name="Layer 1"><path class="cls-1" d="M0,227.72C.14,225,1.68,223.6,2.76,222Q74.81,113.82,146.9,5.7c.37-.56.75-1.11,1.12-1.66,3.66-5.36,4.27-5.4,7.86,0q29.7,44.48,59.36,89,43,64.45,85.92,128.94c1.08,1.62,2.61,3.06,2.77,5.57-2.41.57-4.05-1.1-5.77-2.06q-45-25-89.91-50.18c-6.56-3.67-7.35-3.21-7.35,4.6q0,51.74,0,103.47c0,8.1-.42,8.54-8.41,8.54q-40.74,0-81.48,0c-7.38,0-8-.62-8-8q0-51,0-102c0-1.16,0-2.33,0-3.5-.14-6-1.13-6.56-6.45-3.59q-44.52,24.83-89,49.68C5.29,225.73,3.21,227.56,0,227.72Z"/><path class="cls-1" d="M152,360.1q-20.23,0-40.47,0c-7.93,0-8.38-.46-8.41-8.58,0-6.5.09-13,0-19.49-.07-4.2,1.72-6,6-6q43,.11,85.93,0c4.28,0,6,1.87,5.94,6.05-.12,7,0,14,0,21-.06,6.16-.86,7-6.94,7C179.93,360.14,165.94,360.09,152,360.1Z"/><path class="cls-1" d="M151.47,429c-13.83,0-27.65,0-41.47,0-6.11,0-6.9-.86-6.93-7,0-7.16,0-14.32,0-21.48,0-3.7,1.63-5.5,5.43-5.5q43.47,0,86.94,0c3.81,0,5.43,1.84,5.41,5.52,0,7.33-.12,14.66.06,22,.12,4.66-1.74,6.6-6.48,6.54C180.11,428.91,165.79,429,151.47,429Z"/><path class="cls-1" d="M151.83,498c-14,0-28,.05-42,0-5.87,0-6.68-.84-6.76-6.65-.09-7,.12-14-.07-21-.13-4.78,2-6.46,6.62-6.44q42.46.15,85,0c4.42,0,6.41,1.72,6.32,6.22-.15,7.16-.17,14.33,0,21.49.12,4.76-2,6.48-6.62,6.43C180.14,497.9,166,498,151.83,498Z"/></g></g></svg>