<svg xmlns="http://www.w3.org/2000/svg" viewBox="0 0 182.33 582.16"><defs><style>.cls-1{fill:#fff;}</style></defs><title>Underweight</title><g id="Layer_2" data-name="Layer 2"><g id="Layer_1-2" data-name="Layer 1"><path class="cls-1" d="M146.31,564.86l-4.26.6.94,6.26c-6.92.36-10.36-7.91-19-5.87l18.18,11.66c-4.38.55-9.46-5.08-12.43,3-1.54-1.78-2.87-3.41-4.3-4.94-5.18-5.51-9.63-5.2-13.88.94-3.15,4.56-5.81,4.87-10.57,1.92a13.63,13.63,0,0,0-6.1-1.53c-9.39-.66-18.85-.67-28.18-1.81-7.84-1-15.54-3.09-23.28-4.83-1.11-.25-2.07-1.19-3.1-1.81l.33-1.4c4.32.2,8.65.65,13,.53a75.31,75.31,0,0,0,13.17-1.71c-11.39-.58-23.26,2.41-35.5-5.44,3.85-2.33,6.43-4.54,9.43-5.57,6.1-2.08,12.05-4.39,15.77-9.88a11.66,11.66,0,0,0,2-7.71c-2.23-12.95-5-25.81-7.54-38.71a174.67,174.67,0,0,1-1.56-60.48c1.64-10.91,2-22.37,2.31-33.52.28-9.74-3.22-19.59-5.06-29.39-.43-2.28-1.23-4.55-1.3-6.85-.75-23.95-2.45-47.94-1.77-71.85.75-25.89,2.35-51.86,8.64-77.25,1.1-4.47.38-9.53-.14-14.25-1.42-12.88-3.33-25.7-4.78-38.58-1.26-11.23-2.16-22.51-3.26-33.77a3.8,3.8,0,0,0-1.72-2.81c-.65,5.63-1.52,11.25-1.88,16.9-.57,8.8-.76,17.62-1.15,26.43-.34,7.64-.51,15.3-1.2,22.92a17.16,17.16,0,0,1-2.84,8.39c-4.33,5.84-4.89,12.58-5.92,19.32-2.17,14.3-4.21,28.63-6.9,42.83-1.22,6.47-1.05,12.28,1.39,18.49,4.36,11.08,2.79,22.08-2.06,33.5-3.67-3.7-2.09-7.6-2.37-11.16a44.5,44.5,0,0,0-1.32-6.05c-2.19,1.75-5.7,3.13-6.32,5.32A62.36,62.36,0,0,0,9.5,323.48c0,4.83-2.32,7.65-6.43,11.13-.81-3.42-1.65-6.18-2.08-9-1.59-10.24-1.58-20,2.42-30.21,3.46-8.85,3.94-19,4.72-28.7,1.44-17.9,2-35.86,3.23-53.77.58-8.25,2-16.44,3-24.65a12.63,12.63,0,0,1,.47-2.45c7.06-21.83,8.13-44.5,9.49-67.15.44-7.46,1.14-14.94,2.21-22.34C27.94,86.82,32,82.73,41.61,80.93q12-2.27,24.15-3.82c6.42-.84,9.24-5.38,11.74-10.4a2.85,2.85,0,0,0,.07-2.37c-3.13-4.63-6.44-9.13-9.6-13.73-1.34-2-3-4-3.59-6.17-2.7-9.49.56-18.72,1.87-28a15.61,15.61,0,0,1,9.52-12.6C87-1.15,98.18-1.9,108.5,5.3a20.23,20.23,0,0,1,7.64,11.11c2.08,9.27,4.29,18.82,2,28.43-.53,2.19-2.41,4.11-3.85,6-2.11,2.81-4.39,5.5-6.46,8.08-2,1.93-1.85,1.73-2,1.93C101.39,67,100.69,63.31,109,71.3c3.69,3.55,10.94,7.48,16,7.66,3.65.12,7.31,1,10.93.82,13-.75,19.39,8.23,20.3,18.7,1.94,22.36,3.51,44.76,5.24,67.14a13.85,13.85,0,0,0,.58,3.94c4.89,12.68,5.74,26.17,7.49,39.4,2.18,16.45,3.25,33,4.85,49.59.36,3.78.93,7.55,1.41,11.33.18,1.48.82,3.08.47,4.42-2.57,9.71,1.32,18.27,4.22,27.14,3.06,9.34,1.84,19,.46,28.49-.16,1.14-1.43,3-2.12,3a5.41,5.41,0,0,1-3.51-2.1,10.73,10.73,0,0,1-2.33-4.82c-.77-5.73-.85-11.58-1.91-17.25a14.82,14.82,0,0,0-4.12-7.1c-2.14-2.19-4.44-1.77-4.51,1.87s.37,7,.32,10.47c0,1.1-.92,2.19-1.41,3.28-.91-.79-2.32-1.41-2.65-2.39-3.58-10.75-6.15-21.36.38-32.23,1.68-2.78,1.48-7.2,1-10.69-2.68-18.79-5.72-37.52-8.67-56.27a13,13,0,0,0-1.15-4.33c-6.87-12.15-6.21-25.57-7-38.84-.92-15-2.61-30-4-45l-1.45,0c-.38,5.32-.62,10.66-1.17,16-2.15,20.5-4.58,41-6.49,61.48a70.48,70.48,0,0,0,.47,18.81c4.67,26.1,8.66,52.2,7.8,78.85-.59,18.3-.08,36.66-1.31,54.91-.81,11.88-3.54,23.67-6,35.36a44.93,44.93,0,0,0-.47,16.71c1.24,8.15,1.09,16.52,1.51,24.79.18,3.62-.5,7.5.56,10.82,5.21,16.29,2.22,32.37-.82,48.39-2.57,13.58-6,27-8.77,40.54-2,9.69.57,13.76,9.94,17a113,113,0,0,1,11.56,4.59c5.22,2.52,5.51,4.56,1.77,9.06Zm-40-6.4c1.16-10.51,3.06-22.38,3.66-34.31.83-16.6,1.59-33.22-5.13-49.26-2.05-4.87-2-11.1-1.33-16.53,1.3-11.06,3.87-21.92,1.92-33.22S103,402.69,105,391.41c.38-2.05-.13-4.31-.52-6.43-3.36-18.29-6.8-36.58-10.26-55.15-6.75-1.41-6.87-1.14-8.06,6.31-1.7,10.66-3.53,21.32-5.71,31.9-2.12,10.31-4.07,20.45-2.39,31.14a55.64,55.64,0,0,1-.83,23.22,48,48,0,0,0-1,20.1c2.39,13.41,3.62,26.1-.7,39.74-7,22-4.45,44.77-.89,67.26.63,4,.76,8,1.19,12.77,3.21-4.75,3.19-4.62,8.43-3.8,1.91.31,4-.27,5.92-.26C95.5,558.24,100.78,558.37,106.26,558.46Z"/><path class="cls-1" d="M146.27,564.88l4-.42c-.28,3.46-.55,6.84-.92,11.43-3.22-3.74-4.68-6.88-3-11Z"/><path class="cls-1" d="M112.58,579.54c1.76-1.52,3.32-3.73,5.34-4.31,1.35-.38,3.37,1.57,4.83,3-3.12,1.85-7.23-2.43-8.69,3.89Z"/></g></g></svg>